# xmcd
#
# Track frame offsets:
#	165
#	10612
#	35195
#	58050
#	79060
#	100162
#	124085
#	151065
#	164617
#	183882
#	208317
#	229717
#	253942
#	269790
#	284502
#	306147
#	321525
#
# Disc length: 4352
#
# Revision: 2
# Processed by: cddbd v1.5.1PL0 Copyright (c) Steve Scherf et al.
# Submitted via: CDex 1.40Release
# Normalized: r1:DSETVAR1,TDELIM( - )
#
DISCID=fb10fe11
DTITLE=Various Artist - The Best Of A.O.G.
DYEAR=1900
DGENRE=Blues
TTITLE0=Peter Banks - Fog Bound
TTITLE1=Rose Among Thorns - Children Of The Stone
TTITLE2=Albion Band - We Lie
TTITLE3=Caravan - Side By Side
TTITLE4=Peter Banks - Working Title
TTITLE5=The Uninvited - You Can Watch
TTITLE6=Climax Blues Band - Fool For The Bright Lights
TTITLE7=Groundhogs - Thank Christ For The Bomb
TTITLE8=Groundhogs - Soldier
TTITLE9=Sister Mary Chain - Priority Purchase
TTITLE10=Egypt - Richard III
TTITLE11=Sister Mary Chain - Pie In The Sky
TTITLE12=Terraplane - Down In The Bottom
TTITLE13=Terraplane - Shake For Me
TTITLE14=Tony Ts McPhee - Foolish Pride
TTITLE15=The Uninvited - All Those Little Things
TTITLE16=Mr Smith - You See Laughing Is Good For You
EXTD=ID3G: 0
EXTT0=
EXTT1=
EXTT2=
EXTT3=
EXTT4=
EXTT5=
EXTT6=
EXTT7=
EXTT8=
EXTT9=
EXTT10=
EXTT11=
EXTT12=
EXTT13=
EXTT14=
EXTT15=
EXTT16=
PLAYORDER=
